<svg xmlns="http://www.w3.org/2000/svg" data-name="Layer 1" viewBox="0 0 100 125" x="0px" y="0px"><title>Artboard 1</title><g><path d="M27,58v8A11,11,0,0,0,38,77h3V71H38a5,5,0,0,1-5-5V58a11,11,0,0,0-3.47-8A11,11,0,0,0,33,42V34a5,5,0,0,1,5-5h3V23H38A11,11,0,0,0,27,34v8a5,5,0,0,1-5,5H19v6h3A5,5,0,0,1,27,58Z"/><path d="M73,42V34A11,11,0,0,0,62,23H59v6h3a5,5,0,0,1,5,5v8a11,11,0,0,0,3.47,8A11,11,0,0,0,67,58v8a5,5,0,0,1-5,5H59v6h3A11,11,0,0,0,73,66V58a5,5,0,0,1,5-5h3V47H78A5,5,0,0,1,73,42Z"/></g><text x="0" y="115" fill="#000000" font-size="5px" font-weight="bold" font-family="'Helvetica Neue', Helvetica, Arial-Unicode, Arial, Sans-serif">Created by Gregor Cresnar</text><text x="0" y="120" fill="#000000" font-size="5px" font-weight="bold" font-family="'Helvetica Neue', Helvetica, Arial-Unicode, Arial, Sans-serif">from the Noun Project</text></svg>