<svg height="52" viewBox="0 0 67 52" width="67" xmlns="http://www.w3.org/2000/svg"><path d="m68.0585068 37.0103219c.1920566-.4691114.7777695-.8591591 1.2978731-.6108405l1.5024552.7162588c3.4254068 1.6333981 5.719528 3.2673818 9.1449349 4.9007798.684127.3267968 1.0932911 1.0518404.9763871 1.8067526-.094239.6026413-.7175282 1.2667767-1.3891299.9464221-.5004207-.2389481-1.0014379-.4778963-1.5024551-.7162588-2.3901685-1.140354-4.2296215-2.280708-6.2872483-3.4208629l.0382458.1865339.1957016 1.0278068c1.1254993 6.1745843 1.1600934 12.8223797-1.3390282 18.6971075-1.902076 4.471493-5.2910995 8.2319982-9.6582994 10.5113762-4.2640142 2.2249119-9.1208989 3.1274097-13.9282782 2.9142304-4.9755779-.2202071-9.8640744-1.614657-14.2062234-3.9994533-4.3170982-2.3724975-8.0121001-5.8676999-10.3817922-10.1488543-.3250647-.5874143-.345344-1.5268085.2707879-1.9543383.6119567-.4246015 1.3622896.0175697 1.6760218.584486.2761559.4983943.5690124.9880037.8821482 1.4647287.0864851.1311872.1747595.2606175.263034.3906334.1837063.271745-.0572591-.0720358.0912567.1288446.1622341.2207928.3250647.4409999.4938598.6571074.3483263.4474422.7139495.8814142 1.0950805 1.3025017.3811309.4210876.7771731.828705 1.1869336 1.221681.4872989.4673545.5266645.5042509 1.1028343.9821472.8809552.7303146 1.8102228 1.4032348 2.7788561 2.0175892.4867024.3080558.982948.60147 1.4875439.8802429.1395691.0767211.2791382.1528565.4199001.2278206l-.0629403-.0340372c.0206171.0098317.2066303.1062861.2478396.1271568.2493157.1270876.5004207.2500756.7533151.3695497 4.2568569 2.0123183 8.7710645 2.7007067 13.4746617 2.6585394 2.3243619-.0210837 4.07108.0155715 6.3662159-.5929263 1.077187-.2852151 2.1346911-.6412947 3.1605835-1.0717528.6197106-.2594461.814153-.3508087 1.3217311-.6120118.5069817-.2612031 1.0032273-.541733 1.4869475-.8421751.9388108-.582729 1.8299057-1.2386651 2.6595663-1.9637088.7688228-.6717488 1.43446-1.3622387 2.1758461-2.2869915 1.5245238-1.905143 2.4865961-3.7353219 3.2798733-6.0961062.7837341-2.3356011 1.2149668-5.3365088 1.2370354-7.8384366.0268728-3.0230829-.3400627-6.0237692-.9634557-8.9616801l-1.3528691 3.3028256-2.1877006 5.3423653c-.2672092.6524222-1.0074024.8597449-1.5907296.456227-.6071851-.4193305-.8678334-1.3124578-.5916774-1.987135zm-21.1698258-15.0047142c7.7574164-.1528566 15.9764843 2.8146687 20.2548133 9.4671493.3620446.5628166.3173109 1.5461351-.2701914 1.9543382-.6364112.4415856-1.3276956-.0421673-1.6766183-.5844859-.0829064-.1294303-.1681986-.2576892-.2534909-.3853625l-.0281937-.0412468.0208317.0278777c.1118583.1494985-.1380531-.2057934-.034893-.0497876l.0130613.0209099-.0232938-.0321316c-.0685916-.0928267-.1374815-.1852142-.2071915-.2769427l-.2121122-.2729895c-.2880848-.3613505-.5922739-.7092309-.9107776-1.0442269-.1592519-.1680836-.322679-.3326533-.4890883-.4931234-.0978176-.0948764-.1962317-.1874103-.2958387-.2793585l-.0316979-.0292274.046236.0402776c.1172658.1020671-.0252773-.0257038-.0524406-.0480564l-.0037954-.0022212.007.007-.00765-.0064259c-.2350009-.2053705-.4750385-.4052749-.7202895-.5988454l-.3718087-.2854971c-1.6605141-1.2415933-3.066941-1.9672227-5.0107684-2.6828958-6.9510173-2.5587365-15.0295887-1.8652549-21.5231295 1.6691866-3.5977806 1.9578521-6.8129719 4.6119873-8.9601885 8.0451101-2.0769011 3.3191045-3.2062676 7.2415662-3.5523071 11.2037934l3.1685965-3.0156024 4.0264039-3.8322481c.5505224-.5235776 1.4064268.0995617 1.6760218.5844859.3692019.6635496.2761559 1.4336889-.2707879 1.9537525-.3829203.3648645-.7658406.729729-1.1487609 1.0940078-2.6846171 2.5546369-5.3692343 5.1092738-8.053255 7.6644963-.5654337.5376334-1.3855512-.1130318-1.6766183-.5844859-2.0291197-3.2902224-4.0582393-6.5798591-6.087359-9.8700815-.3519049-.5704302-.3256612-1.5402786.2701914-1.9543382.6292538-.4369004 1.3372388.0345537 1.6766183.5844859l4.0698988 6.5983763c.4557001-4.8474449 1.9054587-9.5641624 4.7657185-13.6137887 4.922494-6.9710782 13.3580729-10.7637945 21.8771546-10.9318781z" fill="#161637" fill-rule="evenodd" transform="translate(-14 -22)"/></svg>