<svg height="56" viewBox="0 0 64 56" width="64" xmlns="http://www.w3.org/2000/svg"><path d="m35.3090293 20.0019014c2.7107551-.0481029 4.0444817.8147785 5.3904868 2.7823993l.2639901.3853662c.505213.7225082.7783708.970258 1.2473168 1.1231963l.1063005.0333518c1.0768183.3253837 2.5821793.4079525 5.7868366.3568115l3.8229666-.0802024c.7541945-.0116183 1.3736065-.0139314 1.957622-.0060532l.9687303.0208421c1.0658083.0213837 2.1022346.0017034 3.8900157-.0730362l3.3586026-.1552949 2.1033772-.0902843c4.5873705-.1697439 7.6138926-.0512631 10.1032666.5464282 3.5854749.8608619 5.6609031 2.7955836 5.6395147 5.9767882l.0047908 22.0712405-.012626 10.1478703.0429083 2.075204c.0218189 1.0282257.0232437 1.6851894-.000242 2.4295206l-.0108017.2917941c-.217893 5.1155216-1.8772584 8.1308534-6.1038005 8.044287-2.8572563-.0591917-6.8135925-.0633164-10.4447291-.0188346l-4.7209685.0679031c-9.2114254.1183525-17.0494732.0883644-24.5991257-.1238989l-1.9353682-.058271c-.5112346-.0139165-1.0007342-.0118447-1.7654006.0088383l-3.1911996.1058917-1.1151889.0211687c-2.6154825.0252436-4.4492858-.1527277-5.9750497-.6874138-2.3877857-.8367715-3.7053186-2.5761772-3.5501194-5.1643834l-.004135.0868694-.0011645.0301258-.0767032-.8072661c-.3853257-4.2917213-.5209277-9.5192217-.4830155-16.2136525l.0096345-1.3389972c.0105242-1.2275611.0253949-2.4402219.0472453-3.8706121l.1508301-8.7662672c.0070801-.5481646.0053416-1.0605188-.0064009-1.7953623l-.0380297-1.8849432c-.0148116-.6817967-.0237892-1.1475094-.0293307-1.571744l-.0074965-1.1334009c.001944-2.6600833.1619354-4.6846799.5875941-6.5617348.6668881-2.9453892 1.9356866-4.7094489 3.9700964-5.5403438 1.35393-.552973 2.4680809-.6565485 5.298822-.5844299l1.8568773.0566976.9450435.0198986c.4635242.0051039.9698088.0019044 1.5451164-.0089616l1.1157715-.0277012 1.9772828-.0662574zm35.6610876 13.3173829-.3262145-.0320307c-1.5691431-.1463083-2.9824153-.1919852-5.0074235-.1920427l-1.3503682.0048837-9.4232084-.0303653-8.1970344-.0342734c-3.2617387-.0067906-5.7580733.0010781-8.2273282.027526l-3.6054482.0485846c-2.1957604.0240399-4.2348263-.0015295-7.7274749-.0834685l-4.825168-.1160235c-1.3654242-.0289807-2.8154437 1.2747182-3.4631094 2.9890799l.0179323.9507979c.0160911.8520831.0217272 1.4283143.0179916 1.9950522l-.1231706 7.1973058c-.032728 1.9225547-.054478 3.4169107-.0694252 4.8512268l-.0216291 2.9479319c-.0242862 6.2778628.1127863 11.2127999.4749587 15.2518469l.084214.8830005c.0072426.0715129.0087198.1435004.0044172.2152541-.1373026 2.2897504 1.8770256 3.0873291 6.9989009 3.0313209l.7922633-.0146774 2.9511968-.0984661c.8967557-.0278219 1.4637419-.0358176 2.0175801-.0262746l1.3154245.0383733c7.7886989.2347321 15.848094.2719025 25.3942756.149222l4.719378-.0678821c3.6580136-.0448146 7.6423757-.0406354 10.5304816.0191954 2.3602649.048342 3.2989472-1.7427847 3.4257922-5.7628668l.0053588-.1866274c.0143674-.5568256.0134275-1.094971-.0008627-1.852783l-.0445677-2.0043399.0012657-2.0687947-.0096164-24.0951422.001206-.8163974c-.0002789-.0057487-.0005212-.0115061-.0007268-.017272l.0015048-.1281418.0009565-.1468529c-.0654787-1.3990402-2.2821477-2.4077148-6.3323224-2.8258795zm-35.3974568-10.6611469-.2182332.0016729-4.2283639.1300255c-.7874503.0209399-1.4605971.0308755-2.0688693.0284739l-.588478-.0065634c-.1719388-.0032111-.3370703-.0068866-.5126139-.0114354l-1.637911-.0497652c-5.1869933-.1369893-6.2010429.3955427-7.0279609 4.0477223-.3090242 1.3627246-.4622164 2.8626418-.5070235 4.7426549 1.0293488-.8224785 2.2546239-1.3141145 3.5530513-1.2865558l6.7408428.1580901c2.7146961.0544987 4.4724867.0627905 6.5142928.0303533l4.0630973-.0497292c2.194775-.0179067 4.5031471-.0220307 7.4211918-.0150213l15.3671899.0636814 3.2095081-.0048562c1.9440636.000176 3.3553683.0415155 4.880095.1717131l.3541676.0316447c2.6794384.2498332 4.8682798.7312484 6.4224598 1.5421874l.002716-1.3784446c.0210904-3.1369026-3.7951201-4.1498394-12.6407323-3.8609614l-.8576834.0314218-4.7166555.2158531c-1.7141303.0736449-2.7811527.1011172-3.7930907.0924169l-1.6723087-.0302553c-.5706192-.0049947-1.1929189-.0003068-1.9622644.0133276l-2.1480081.0479775c-4.6758957.1082051-6.488033.0401472-8.1208571-.4913809l-.208035-.0722019c-1.0790249-.3985595-1.6848205-1.020836-2.5226401-2.2507834l-.2494137-.3629199c-.826804-1.168911-1.4182115-1.5059044-3.0657029-1.4766696z" fill="#161637" fill-rule="evenodd" transform="translate(-16 -20)"/></svg>