<svg height="36" viewBox="0 0 88 36" width="88" xmlns="http://www.w3.org/2000/svg"><path d="m850.292502 15.6553311c-1.472641.3394057-5.361924.5279644-5.361924.5279644l-.478294 1.5336109s1.925761-.1634176 3.335469-.0251412c0 0 .453121-.0377117.503467.5028233.025174.5531055-.03776 1.1313522-.03776 1.1313522s-.03776.3394057-.503467.4273998c-.541227.087994-4.191363.2514116-4.191363.2514116l-.591574 1.9861518s-.213973.4525409.276907.3268351c.45312-.1257059 4.27947-.8547995 4.782937-.7542349.528641.1257058 1.132801.8547995.956588 1.5084697-.201387.7919466-4.027737 3.2306393-6.343686 3.0672217 0 0-1.220907.0754235-2.240428-1.5713226-.981761-1.5713226.33984-4.5254091.33984-4.5254091s-.591574-1.3827639-.15104-1.8855871c0 0 .251734-.2136999 1.006934-.2765528l.944001-1.9358694s-1.069868.0628529-1.699201-.7165231c-.578987-.7542349-.629334-1.08107-.176214-1.2821992.478294-.2514117 4.908804-1.0433583 7.95478-.9427936 0 0 1.069867-.1257058 2.013868 1.7221696 0 0 .427947.7542348-.327253.9302229m-11.491636 7.4417839c-.377601.9176524-1.422295 1.8855871-2.680962 1.2947698-1.283842-.6033879-3.310296-4.7265384-3.310296-4.7265384s-.755201-1.5336108-.906241-1.4833285c0 0-.163627-.301694-.251734 1.3827639-.125867 1.6718872.025174 4.9276676-.667094 5.4430614-.629333.5028233-1.384534.2891234-1.812481-.3016939-.352427-.5908173-.503467-2.0112929-.30208-4.4876973.22656-2.4764044.79296-5.1162264 1.510401-5.9333142.755201-.8296583 1.359361-.2262704 1.585921 0 0 0 .969174.8799407 2.605442 3.4820509l.276907.4776821s1.485228 2.4764044 1.636268 2.4638338c0 0 .125867.1257058.22656.0251412.15104-.0377118.100694-.8422289.100694-.8422289s-.276907-2.6775337-1.661442-7.2029428c0 0-.201386-.5782467-.062933-1.1313523.125867-.5028232.667094-.2514116.667094-.2514116s2.089388 1.0056465 3.108909 4.3997033c1.006934 3.3940568.327254 6.4738491-.050347 7.3915015m-10.258141-8.7114125c-.201387.3519762-.289494.8422289-1.157975.9805053 0 0-8.433073.5908173-8.848433 1.1816346 0 0-.276907.3519762.176213.4399703.478294.1005646 2.391469.3519763 3.29771.4022586.98176 0 4.27947.0251411 5.487791 1.5084697 0 0 .692267.7039525.667093 2.3004163-.025173 1.6341755-.314666 2.2124222-.956587 2.8032395-.667094.5531055-6.381445 3.117504-10.069341-.8045172 0 0-1.686615-1.8855871.591573-3.3186333 0 0 1.636268-1.0056465 5.827632.1634175 0 0 1.258667.4525409 1.208321.9176524-.07552.5028233-1.044694 1.0056465-2.454402.9805053-1.359361-.0377117-2.366295-.6913819-2.164909-.5782467.1888.0628529-1.472641-.8045172-1.988695-.2136999-.503467.5531056-.3776.8799407.125867 1.2193464 1.258668.7290937 6.205232.4651115 7.677873-1.1816346 0 0 .591574-.6662408-.30208-1.2067758-.881068-.5028232-3.44875-.8170877-4.443097-.8547995-.944001-.0502823-4.480857 0-5.009498-.9176524 0 0-.503467-.6536702.050347-2.4386926.578987-1.8855872 4.694831-2.6146808 6.482139-2.7655278 0 0 4.908804-.2011293 5.827631.8045172 0 0 .125867.2262704-.025173.5656761m-13.920865 11.0621111c-.591574.4399703-1.850241.2514116-2.215255-.2514116-.352427-.4399704-.478294-2.1747105-.41536-4.9025265.088107-2.790669.125867-6.2098669.7552-6.7629725.629334-.540535 1.006935-.0628529 1.258668.3016939.251734.3771175.578987.7919466.629334 1.6593167.07552.8799407.289493 5.4053497.289493 5.4053497s.276907 4.1231505-.289493 4.5505503m1.246081-14.7075795c-1.736962.5908173-2.920109.4022586-3.927043-.0377118-.440534.7919466-.704854 1.0307877-1.032108 1.08107-.503467.0502823-.944001-.7542349-1.006934-1.0056465-.100693-.1885587-.33984-.5279644-.050347-1.2947698-.98176-.87994066-1.05728-2.06157525-.881067-2.85352184.22656-.93022298 1.888002-4.42484444 6.922672-4.8396736 0 0 2.466989-.17598813 2.894936 1.13135227h.07552s2.391469 0 2.341122 2.13699873c0 2.13699873-2.643202 4.80196186-5.336751 5.71961424m2.240428-6.12187283c-1.585921.25141162-4.027736 2.36326919-5.198297 4.11057992 1.799895.3268351 4.946564.20112929 6.356272-2.63982196 0 0 .667094-1.78502247-1.157975-1.47075796m-6.960432 1.38276389c-.503467.81708775-.52864 1.3073404-.289493 1.6341755.591573-.87994065 1.636268-2.26270454 3.209602-3.34377449-1.208321.12570581-2.227842.62852904-2.920109 1.70959899m42.882808 19.32098264c-1.157974 2.8409513-2.139735 5.7196143-2.706136 10.0313235 0 0-.125866.8422289-.818134.5656761-.692267-.2514116-1.825068-1.3827639-2.076801-2.9792276-.251734-2.0867164.67968-5.6064791 2.580269-9.6542061-.553814-.8799406-.944001-2.187281-.629334-4.0225858 0 0 .503467-3.3940568 3.90187-6.4612785 0 0 .402773-.3394057.629333-.2262705.276907.1257058.163627 1.2067758-.062933 1.7598813-.201387.5279644-1.711788 3.1426452-1.711788 3.1426452s-.944001 1.7850225-.679681 3.180357c1.787308-2.7403867 5.852805-8.2965834 8.37014-6.5367021 1.598508 1.1313523 1.598508 4.7768207.402774 6.8886783-.944001 1.6718873-3.612376 5.128797-7.174406 4.3242798m5.236058-8.5479949c-.931414 1.0056464-2.592856 2.9163747-3.90187 5.5059144 1.384535-.150847 2.731309-.9176524 3.146669-1.3073404.667094-.5908173 2.202669-2.1872811 1.963522-4.2991387 0 0-.15104-1.1062111-1.208321.1005647m-56.388312 10.0187529c-4.455684 1.3576227-8.659634.7290936-10.950409.1257058-.062933.9302229-.163627 1.3199109-.314667 1.4707579-.176213.2011293-1.636268 1.0307876-2.441815-.150847-.352427-.5656761-.528641-1.5838931-.629334-2.5141161-5.160538-2.338128-7.552006-5.7824672-7.627526-5.908173-.125867-.1257058-1.296428-1.3450521-.125867-2.8535218 1.095041-1.3576227 4.720004-2.727816 7.967366-3.268351.125867-2.7655278.427947-4.90252652.818134-5.84532008.465707-1.13135227 1.057281-.12570581 1.585922.62852904.427947.56567613.692267 2.99179824.71744 4.92766764 2.114562-.1005646 3.398403.0502823 5.752112.5028233 3.096322.5279643 5.160537 2.1118575 4.99691 3.89688-.15104 1.7598813-1.762134 2.488975-2.391468 2.5392573s-1.636268-.4148292-1.636268-.4148292c-.704854-.3268351-.062934-.628529.7552-.9805053.906241-.4399703.704854-.8799406.704854-.8799406-.327253-1.0056465-4.342403-1.6718873-8.33238-1.6718873 0 2.1998517.088107 5.8453201.15104 7.9697483 2.794243.5279644 4.883631.4148291 4.883631.4148291s10.195208-.2891233 10.484702-6.7881136c.314667-6.5115608-10.195209-12.74656891-17.936015-14.70757951-7.728219-2.0238635-12.108383-.59081729-12.485983-.40225858-.415361.20112929-.03776.27655277-.03776.27655277s.41536.06285291 1.170561.31426452c.7552.25141162.15104.62852904.15104.62852904-1.321601.45254091-2.794242.18855872-3.083736-.41482916-.289494-.5908173.1888-1.13135227.755201-1.92329886.52864-.81708775 1.132801-.79194659 1.132801-.79194659 9.565874-3.33120391 21.24631 2.63982196 21.24631 2.63982196 10.925235 5.50591439 12.788064 11.97976351 12.586677 14.49387961-.176214 2.4764044-1.132801 6.6624079-7.866673 8.6988419m-21.01975-9.0005358c-1.082455.5028232-.327254 1.3073404-.327254 1.3073404 2.039042 2.1747105 4.531204 3.5449038 6.922672 4.3997033.276907-3.7711743.251734-5.1162264.251734-7.0143841-3.700483.2514116-5.840218.8547995-6.847152 1.3073404" fill="#161637" transform="translate(-775)"/></svg>